<svg width="210" height="169" xmlns="http://www.w3.org/2000/svg" version="1.1">
 <g>
  <title>Layer 1</title>
  <path fill="#58a6ff" d="m0.05468,168.22001l91.24,-167.93a0.47,0.47 0 0 1 0.41,-0.25l35.73,0a0.47,0.47 0 0 1 0.41,0.69l-91.29,167.96a0.47,0.47 0 0 1 -0.41,0.25l-35.68,-0.03a0.47,0.47 0 0 1 -0.41,-0.69z" id="svg_7"/>
  <path fill="#58a6ff" d="m210.20468,1.02001l-91.08,167.58a0.69,0.69 0 0 1 -0.61,0.36l-35.19,-0.06a0.69,0.69 0 0 1 -0.61,-1.02l91.03,-167.47a0.69,0.69 0 0 1 0.61,-0.36l35.24,-0.05a0.69,0.69 0 0 1 0.61,1.02z" id="svg_8"/>
 </g>

</svg>