
<svg xmlns="http://www.w3.org/2000/svg" version="1.1" xmlns:xlink="http://www.w3.org/1999/xlink" xmlns:svgjs="http://svgjs.dev/svgjs" width="1000" height="305" viewBox="0 0 1000 305"><g transform="matrix(1,0,0,1,-0.6060341526192587,-0.587740582011179)"><svg viewBox="0 0 396 121" data-background-color="#000000" preserveAspectRatio="xMidYMid meet" height="305" width="1000" xmlns="http://www.w3.org/2000/svg" xmlns:xlink="http://www.w3.org/1999/xlink"><g id="tight-bounds" transform="matrix(1,0,0,1,0.23998990956820876,0.23316921450279438)"><svg viewBox="0 0 395.5199999999999 120.53366003062786" height="120.53366003062786" width="395.5199999999999"><g><svg viewBox="0 0 395.5199999999999 120.53366003062786" height="120.53366003062786" width="395.5199999999999"><g><svg viewBox="0 0 395.5199999999999 120.53366003062786" height="120.53366003062786" width="395.5199999999999"><g id="textblocktransform"><svg viewBox="0 0 395.5199999999999 120.53366003062786" height="120.53366003062786" width="395.5199999999999" id="textblock"><g><svg viewBox="0 0 395.5199999999999 120.53366003062786" height="120.53366003062786" width="395.5199999999999"><g transform="matrix(1,0,0,1,0,0)"><svg width="395.5199999999999" viewBox="4.300000190734863 -41.650001525878906 195.87998962402344 59.70000076293945" height="120.53366003062786" data-palette-color="#6897bb"><path d="M33.75-15.35L33.75-15.35Q32.95-15.3 31.8-14.33 30.65-13.35 29.33-11.83 28-10.3 26.58-8.45 25.15-6.6 23.83-4.78 22.5-2.95 21.35-1.35 20.2 0.25 19.4 1.2L19.4 1.2Q18.3 0.75 17.5-0.13 16.7-1 16.35-2.3L16.35-2.3Q16.6-3.85 17.05-5.53 17.5-7.2 18.23-9 18.95-10.8 20.03-12.78 21.1-14.75 22.65-16.95L22.65-16.95Q21.9-16.9 20.6-15.88 19.3-14.85 17.8-13.23 16.3-11.6 14.7-9.58 13.1-7.55 11.7-5.6L11.7-5.6Q9.85-3 8.63-1.05 7.4 0.9 6.85 1.25L6.85 1.25Q5.55 0.3 5.05-0.8 4.55-1.9 4.3-3.25L4.3-3.25Q4.35-4.45 4.67-6.25 5-8.05 5.6-9.95L5.6-9.95Q6.75-13.6 8.58-17.2 10.4-20.8 12.1-23.8L12.1-23.8Q13.5-23.5 14.63-22.85 15.75-22.2 17-20.95L17-20.95Q16.5-19.4 15.45-17.68 14.4-15.95 13.25-14.05 12.1-12.15 11.15-10.15 10.2-8.15 9.9-6.1L9.9-6.1Q11.3-8.1 13.23-10.7 15.15-13.3 17.18-15.6 19.2-17.9 21.2-19.5 23.2-21.1 24.8-21.1L24.8-21.1Q25.4-21.1 26.1-20.9 26.8-20.7 27.4-20.4 28-20.1 28.4-19.83 28.8-19.55 28.85-19.4L28.85-19.4Q28.6-18.4 27.68-16.68 26.75-14.95 25.7-13.05 24.65-11.15 23.75-9.38 22.85-7.6 22.7-6.55L22.7-6.55Q25.15-9.9 27.3-12.63 29.45-15.35 31.35-17.3 33.25-19.25 34.88-20.3 36.5-21.35 37.95-21.35L37.95-21.35Q38.95-21.35 39.83-20.83 40.7-20.3 41.05-19.3L41.05-19.3Q40.6-17.8 39.58-15.7 38.55-13.6 37.5-11.28 36.45-8.95 35.63-6.7 34.8-4.45 34.8-2.65L34.8-2.65Q34.8-1.6 35.1-1.28 35.4-0.95 35.95-0.95L35.95-0.95Q36.55-0.95 37.08-1.18 37.6-1.4 37.85-1.4L37.85-1.4Q38.15-1.2 38.2-0.9 38.25-0.6 38.25-0.35L38.25-0.35Q37.25 0.45 36.2 0.98 35.15 1.5 33.85 1.5L33.85 1.5Q32.65 1.5 31.88 1.1 31.1 0.7 30.6 0 30.1-0.7 29.9-1.6 29.7-2.5 29.7-3.55L29.7-3.55Q29.7-5.25 30.15-6.93 30.6-8.6 31.23-10.13 31.85-11.65 32.55-12.98 33.25-14.3 33.75-15.35ZM41.9-1L41.9-1Q42.15-2.45 42.77-4.83 43.4-7.2 44.25-9.88 45.1-12.55 46.05-15.25 47-17.95 47.9-20.1L47.9-20.1Q48.55-21.65 49.05-22.53 49.55-23.4 50.15-24L50.15-24Q50.85-23.9 51.6-23.65 52.35-23.4 53.05-23.05 53.75-22.7 54.3-22.33 54.85-21.95 55.15-21.6L55.15-21.6Q53.8-20 52.77-17.95 51.75-15.9 50.7-12.7L50.7-12.7Q53.4-15.1 55.47-17.3 57.55-19.5 59.35-22.2L59.35-22.2Q59.65-22.45 60.4-22.45L60.4-22.45Q61.1-22.45 61.75-22.23 62.4-22 62.65-21.6L62.65-21.6Q61.75-19.2 61.75-16.85L61.75-16.85Q61.75-14.65 62.4-13.55L62.4-13.55Q62.35-13.25 61.72-12.4 61.1-11.55 60.35-10.8L60.35-10.8Q59-11.5 57.95-12.73 56.9-13.95 56.4-15.4L56.4-15.4Q54.05-13.75 52.4-12.18 50.75-10.6 49.57-8.68 48.4-6.75 47.57-4.25 46.75-1.75 46 1.7L46 1.7Q45.55 1.65 44.92 1.38 44.3 1.1 43.67 0.7 43.05 0.3 42.55-0.15 42.05-0.6 41.9-1ZM79.7-19.9L79.7-19.9Q79.65-18.95 79.37-17.93 79.1-16.9 78.7-16.07 78.3-15.25 77.85-14.7 77.4-14.15 77-14.15L77-14.15Q76.45-14.2 76.35-14.9L76.35-14.9Q76.35-15.05 76.47-15.38 76.6-15.7 76.75-16.1 76.9-16.5 77.02-16.9 77.15-17.3 77.15-17.6L77.15-17.6Q77.15-18.3 76.82-18.78 76.5-19.25 75.95-19.25L75.95-19.25Q73.95-19.25 72.9-16.75 71.85-14.25 71.85-9.4L71.85-9.4Q71.85-8.9 71.9-8.8L71.9-8.8Q72.95-8.85 73.77-8.88 74.6-8.9 75.4-8.9L75.4-8.9Q75.45-8.8 75.45-8.5L75.45-8.5Q75.45-8.05 75.25-7.85L75.25-7.85Q74.1-7.6 73.42-7.43 72.75-7.25 72.4-7.1 72.05-6.95 71.97-6.78 71.9-6.6 71.9-6.3L71.9-6.3Q71.9-5.9 71.92-5.5 71.95-5.1 71.95-4.5L71.95-4.5Q71.95-0.3 69.67 2.25 67.4 4.8 63.35 5.2L63.35 5.2Q62.65 5.15 61.9 4.8 61.15 4.45 60.47 3.9 59.8 3.35 59.3 2.68 58.8 2 58.6 1.3L58.6 1.3Q58.6-0.6 59.4-2.33 60.2-4.05 61.57-5.38 62.95-6.7 64.82-7.53 66.7-8.35 68.9-8.5L68.9-8.5Q68.9-9.75 68.65-10.95 68.4-12.15 68.12-13.28 67.85-14.4 67.6-15.48 67.35-16.55 67.35-17.6L67.35-17.6Q67.35-18.95 67.9-20.28 68.45-21.6 69.35-22.73 70.25-23.85 71.45-24.65 72.65-25.45 73.95-25.75L73.95-25.75Q74.5-25.6 75.42-24.88 76.35-24.15 77.25-23.25 78.15-22.35 78.85-21.43 79.55-20.5 79.7-19.9ZM63.2 2.9L63.2 2.9Q64.4 2.4 65.47 1.45 66.55 0.5 67.35-0.7 68.15-1.9 68.62-3.25 69.1-4.6 69.1-5.9L69.1-5.9Q68.1-5.75 66.9-4.98 65.7-4.2 64.65-3.13 63.6-2.05 62.9-0.9 62.2 0.25 62.2 1.1L62.2 1.1Q62.2 2.2 63.2 2.9ZM98.54-7.75L98.54-7.75Q97.39-4.1 96.24-1.1 95.09 1.9 93.79 4.42 92.49 6.95 90.99 9.08 89.49 11.2 87.69 13.1L87.69 13.1Q85.39 15.5 82.94 16.78 80.49 18.05 78.04 18.05L78.04 18.05Q76.79 18.05 75.57 17.78 74.34 17.5 73.27 17.03 72.19 16.55 71.37 15.93 70.54 15.3 70.19 14.6L70.19 14.6Q70.19 14 70.89 13.55L70.89 13.55Q71.49 14.1 71.89 14.4 72.29 14.7 72.67 14.9 73.04 15.1 73.47 15.15 73.89 15.2 74.44 15.2L74.44 15.2Q77.29 15.2 80.02 13.53 82.74 11.85 85.17 8.78 87.59 5.7 89.59 1.33 91.59-3.05 92.99-8.45L92.99-8.45Q92.34-7.45 91.39-6 90.44-4.55 89.29-3.13 88.14-1.7 86.92-0.55 85.69 0.6 84.54 1L84.54 1Q83.74 0.95 82.87 0.68 81.99 0.4 81.22-0.1 80.44-0.6 79.84-1.3 79.24-2 79.04-2.9L79.04-2.9Q79.04-4.35 79.14-5.23 79.24-6.1 79.49-7.15L79.49-7.15Q79.94-9.05 80.82-11.45 81.69-13.85 82.87-16.18 84.04-18.5 85.47-20.53 86.89-22.55 88.44-23.7L88.44-23.7Q88.84-23.7 89.44-23.63 90.04-23.55 90.69-23.35 91.34-23.15 91.94-22.88 92.54-22.6 92.99-22.15L92.99-22.15Q92.44-21.65 90.59-18.8 88.74-15.95 86.49-10.6L86.49-10.6Q86.24-10.05 85.89-9 85.54-7.95 85.22-6.8 84.89-5.65 84.64-4.55 84.39-3.45 84.39-2.8L84.39-2.8Q84.39-2.4 84.52-2.2 84.64-2 84.74-1.9L84.74-1.9Q85.64-2.05 87.14-3.38 88.64-4.7 90.54-7.5L90.54-7.5Q91.74-9.3 92.74-11.08 93.74-12.85 94.72-14.65 95.69-16.45 96.74-18.35 97.79-20.25 98.99-22.25L98.99-22.25Q99.64-22.25 100.39-22.1 101.14-21.95 101.84-21.73 102.54-21.5 103.07-21.23 103.59-20.95 103.84-20.65L103.84-20.65Q102.29-17.35 100.94-14.2 99.59-11.05 98.54-7.75ZM121.44-20.2L121.44-20.2Q121.94-20.2 122.62-20.03 123.29-19.85 123.84-19.58 124.39-19.3 124.77-19 125.14-18.7 125.14-18.45L125.14-18.45Q124.14-16.35 123.29-14.23 122.44-12.1 121.84-10.15 121.24-8.2 120.92-6.5 120.59-4.8 120.59-3.55L120.59-3.55Q120.59-2.15 120.89-1.23 121.19-0.3 121.89 0.1L121.89 0.1Q121.29 0.5 120.34 0.75 119.39 1 118.64 1L118.64 1Q115.94 1 115.94-2.7L115.94-2.7Q115.94-5.55 117.84-10.5L117.84-10.5Q116.84-8.2 115.54-6.18 114.24-4.15 112.89-2.6 111.54-1.05 110.17-0.08 108.79 0.9 107.64 1.1L107.64 1.1Q105.79 1 104.64-0.68 103.49-2.35 103.49-4.95L103.49-4.95Q103.49-7.75 104.69-10.85 105.89-13.95 107.77-16.6 109.64-19.25 111.84-21.03 114.04-22.8 116.09-22.9L116.09-22.9Q116.59-22.75 117.22-22.3 117.84-21.85 118.42-21.25 118.99-20.65 119.39-20.03 119.79-19.4 119.84-18.95L119.84-18.95Q117.84-18.65 115.72-17 113.59-15.35 111.87-13.03 110.14-10.7 109.04-8.05 107.94-5.4 107.94-3.1L107.94-3.1Q107.94-2.15 108.64-1.9L108.64-1.9Q110.09-2.2 111.99-4.38 113.89-6.55 116.59-11.1L116.59-11.1Q117.09-12 117.72-13.1 118.34-14.2 118.99-15.4 119.64-16.6 120.27-17.82 120.89-19.05 121.44-20.2ZM131.89 0.35L131.89 0.35Q134.19-1.2 136.39-3.63 138.59-6.05 140.39-8.88 142.19-11.7 143.44-14.75 144.69-17.8 145.14-20.6L145.14-20.6Q145.14-21.2 144.49-21.4L144.49-21.4Q143.79-21.4 142.56-20.18 141.34-18.95 139.86-17.05 138.39-15.15 136.86-12.8 135.34-10.45 134.09-8.13 132.84-5.8 131.96-3.78 131.09-1.75 130.99-0.5L130.99-0.5Q130.49-0.5 130.14-1.5L130.14-1.5Q130.04-1.75 129.79-2.02 129.54-2.3 128.99-2.7L128.99-2.7Q128.74-2.9 128.49-3.18 128.24-3.45 128.14-3.65L128.14-3.65Q127.94-4.05 127.94-4.95L127.94-4.95Q127.94-7.9 128.69-11.6 129.44-15.3 130.66-19.15 131.89-23 133.54-26.73 135.19-30.45 136.96-33.55 138.74-36.65 140.54-38.8 142.34-40.95 143.94-41.65L143.94-41.65Q144.44-41.5 145.14-41.15 145.84-40.8 146.54-40.35 147.24-39.9 147.86-39.45 148.49-39 148.79-38.65L148.79-38.65Q143.29-34.2 139.26-27.23 135.24-20.25 132.69-10.75L132.69-10.75Q134.09-13.35 135.84-15.78 137.59-18.2 139.31-20.05 141.04-21.9 142.61-23 144.19-24.1 145.24-24.1L145.24-24.1Q146.04-23.9 146.79-23.4 147.54-22.9 148.14-22.18 148.74-21.45 149.14-20.63 149.54-19.8 149.64-18.9L149.64-18.9Q149.59-16.8 148.91-14.43 148.24-12.05 147.11-9.75 145.99-7.45 144.56-5.35 143.14-3.25 141.56-1.68 139.99-0.1 138.41 0.85 136.84 1.8 135.44 1.8L135.44 1.8Q134.84 1.8 134.21 1.68 133.59 1.55 133.06 1.33 132.54 1.1 132.21 0.85 131.89 0.6 131.89 0.35ZM168.14-20.2L168.14-20.2Q168.64-20.2 169.31-20.03 169.99-19.85 170.54-19.58 171.09-19.3 171.46-19 171.84-18.7 171.84-18.45L171.84-18.45Q170.84-16.35 169.99-14.23 169.14-12.1 168.54-10.15 167.94-8.2 167.61-6.5 167.29-4.8 167.29-3.55L167.29-3.55Q167.29-2.15 167.59-1.23 167.89-0.3 168.59 0.1L168.59 0.1Q167.99 0.5 167.04 0.75 166.09 1 165.34 1L165.34 1Q162.64 1 162.64-2.7L162.64-2.7Q162.64-5.55 164.54-10.5L164.54-10.5Q163.54-8.2 162.24-6.18 160.94-4.15 159.59-2.6 158.24-1.05 156.86-0.08 155.49 0.9 154.34 1.1L154.34 1.1Q152.49 1 151.34-0.68 150.19-2.35 150.19-4.95L150.19-4.95Q150.19-7.75 151.39-10.85 152.59-13.95 154.46-16.6 156.34-19.25 158.54-21.03 160.74-22.8 162.79-22.9L162.79-22.9Q163.29-22.75 163.91-22.3 164.54-21.85 165.11-21.25 165.69-20.65 166.09-20.03 166.49-19.4 166.54-18.95L166.54-18.95Q164.54-18.65 162.41-17 160.29-15.35 158.56-13.03 156.84-10.7 155.74-8.05 154.64-5.4 154.64-3.1L154.64-3.1Q154.64-2.15 155.34-1.9L155.34-1.9Q156.79-2.2 158.69-4.38 160.59-6.55 163.29-11.1L163.29-11.1Q163.79-12 164.41-13.1 165.04-14.2 165.69-15.4 166.34-16.6 166.96-17.82 167.59-19.05 168.14-20.2ZM182.48-24.25L182.48-24.25Q183.78-23.85 184.93-22.48 186.08-21.1 186.63-19.45L186.63-19.45Q186.08-18.1 184.93-16.2 183.78-14.3 182.63-12.33 181.48-10.35 180.56-8.58 179.63-6.8 179.48-5.65L179.48-5.65Q180.28-6.5 181.26-7.63 182.23-8.75 183.16-9.88 184.08-11 184.88-11.93 185.68-12.85 186.13-13.3L186.13-13.3Q187.08-14.3 188.38-15.63 189.68-16.95 191.11-18.13 192.53-19.3 193.98-20.13 195.43-20.95 196.63-20.95L196.63-20.95Q197.93-20.95 198.81-20.08 199.68-19.2 200.18-18.25L200.18-18.25Q200.18-18.15 199.81-17.98 199.43-17.8 198.73-17L198.73-17Q198.03-16.1 197.16-14.53 196.28-12.95 195.46-11.13 194.63-9.3 194.08-7.4 193.53-5.5 193.53-3.95L193.53-3.95Q193.53-2.7 193.86-2.35 194.18-2 194.78-2L194.78-2Q195.33-2 195.93-2.25 196.53-2.5 196.88-2.5L196.88-2.5Q197.08-2.4 197.21-2.08 197.33-1.75 197.33-1.5L197.33-1.5Q196.93-1.15 196.38-0.8 195.83-0.45 195.23-0.15 194.63 0.15 194.06 0.35 193.48 0.55 193.03 0.55L193.03 0.55Q191.58 0.55 190.66 0.13 189.73-0.3 189.21-1 188.68-1.7 188.48-2.68 188.28-3.65 188.28-4.75L188.28-4.75Q188.28-5.35 188.38-6.1 188.48-6.85 188.78-7.88 189.08-8.9 189.63-10.33 190.18-11.75 191.03-13.75L191.03-13.75Q190.93-13.75 189.68-13.05 188.43-12.35 186.98-10.9L186.98-10.9Q184.63-8.65 182.76-6.45 180.88-4.25 178.93-1.55L178.93-1.55Q177.83 0 177.01 1.07 176.18 2.15 175.58 2.5L175.58 2.5Q174.53 1.9 174.03 0.83 173.53-0.25 173.28-1.4L173.28-1.4Q173.28-2.35 173.56-3.8 173.83-5.25 174.31-7.03 174.78-8.8 175.48-10.75 176.18-12.7 177.03-14.65L177.03-14.65Q178.93-19.05 180.51-21.55 182.08-24.05 182.48-24.25Z" opacity="1" transform="matrix(1,0,0,1,0,0)" fill="#6897bb" class="wordmark-text-0" data-fill-palette-color="primary" id="text-0"></path></svg></g></svg></g></svg></g></svg></g><g></g></svg></g><defs></defs></svg><rect width="395.5199999999999" height="120.53366003062786" fill="none" stroke="none" visibility="hidden"></rect></g></svg></g></svg>
