<?xml version="1.0" standalone="no"?>
<!DOCTYPE svg PUBLIC "-//W3C//DTD SVG 1.0//EN" "http://www.w3.org/TR/2001/REC-SVG-20010904/DTD/svg10.dtd">
<svg xmlns="http://www.w3.org/2000/svg" xmlns:xlink="http://www.w3.org/1999/xlink" id="body_1" width="140" height="43">

<g transform="matrix(0.14000002 0 0 0.14000002 -0 0.14999971)">
	<g transform="matrix(1 0 0 1 -0.60603416 -0.5877406)">
		<g transform="matrix(2.520661 0 0 2.520661 1.8181869 -0)">
			<g transform="matrix(1 0 0 1 0.2399899 0.23316921)">
				<g transform="matrix(1 0 0 1 0 0)">
					<g>
						<g transform="matrix(1 0 0 1 0 0)">
							<g>
								<g transform="matrix(1 0 0 1 0 0)">
									<g>
										<g transform="matrix(1 0 0 1 0 0)">
											<g>
												<g transform="matrix(1 0 0 1 0 0)">
													<g transform="matrix(1 0 0 1 0 0)">
														<g transform="matrix(2.0189893 0 0 2.0189893 -8.055763 82.778564)">
                                                            <path transform="matrix(1 0 0 1 0 0)"  d="M33.75 -15.35C 33.216667 -15.316668 32.566666 -14.976667 31.8 -14.33C 31.033335 -13.676667 30.210001 -12.843334 29.33 -11.83C 28.443335 -10.81 27.526669 -9.683333 26.58 -8.45C 25.626667 -7.2166667 24.71 -5.993334 23.83 -4.78C 22.943333 -3.5600002 22.116667 -2.4166667 21.35 -1.35C 20.583334 -0.28333336 19.933334 0.5666667 19.4 1.2C 18.666666 0.90000004 18.033333 0.45666668 17.5 -0.13C 16.966667 -0.71000004 16.583334 -1.4333334 16.35 -2.3C 16.516668 -3.3333333 16.75 -4.41 17.05 -5.53C 17.35 -6.6433334 17.743334 -7.8 18.23 -9C 18.710001 -10.200001 19.310001 -11.460001 20.03 -12.78C 20.743336 -14.093334 21.616669 -15.483335 22.65 -16.95C 22.150002 -16.916668 21.466667 -16.56 20.6 -15.88C 19.733334 -15.193335 18.8 -14.31 17.8 -13.23C 16.8 -12.143333 15.766666 -10.926667 14.7 -9.58C 13.633333 -8.226667 12.633333 -6.9000006 11.7 -5.6C 10.466667 -3.8666668 9.443334 -2.35 8.63 -1.05C 7.8100004 0.25000003 7.2166667 1.0166667 6.85 1.25C 5.9833336 0.6166667 5.3833337 -0.06666666 5.05 -0.8C 4.716667 -1.5333333 4.466667 -2.35 4.3 -3.25C 4.3333335 -4.05 4.456667 -5.05 4.67 -6.25C 4.8900003 -7.4500003 5.2000003 -8.683333 5.6 -9.95C 6.366667 -12.383334 7.36 -14.800001 8.58 -17.2C 9.793333 -19.6 10.966667 -21.8 12.1 -23.8C 13.033334 -23.6 13.876667 -23.283333 14.63 -22.85C 15.376667 -22.416668 16.166668 -21.783335 17 -20.95C 16.666668 -19.916668 16.15 -18.826668 15.45 -17.68C 14.75 -16.526667 14.016667 -15.316667 13.25 -14.05C 12.483335 -12.783334 11.783335 -11.483334 11.15 -10.15C 10.516666 -8.816667 10.1 -7.4666667 9.9 -6.1C 10.833334 -7.433334 11.943334 -8.966667 13.23 -10.7C 14.51 -12.433333 15.826668 -14.066668 17.18 -15.6C 18.526669 -17.133333 19.866669 -18.433334 21.2 -19.5C 22.533335 -20.566668 23.733334 -21.100002 24.8 -21.1C 25.2 -21.100002 25.633335 -21.033335 26.1 -20.9C 26.566668 -20.766668 27 -20.600002 27.4 -20.4C 27.800001 -20.2 28.133335 -20.01 28.4 -19.83C 28.666668 -19.643333 28.816668 -19.5 28.85 -19.4C 28.683334 -18.733334 28.293335 -17.826668 27.68 -16.68C 27.060001 -15.526668 26.400002 -14.316668 25.7 -13.05C 25.000002 -11.783334 24.350002 -10.56 23.75 -9.38C 23.150002 -8.193334 22.800001 -7.25 22.7 -6.55C 24.333334 -8.783333 25.866667 -10.809999 27.3 -12.63C 28.733335 -14.443334 30.083336 -16 31.35 -17.3C 32.61667 -18.6 33.793335 -19.6 34.88 -20.3C 35.96 -21 36.983334 -21.35 37.95 -21.35C 38.61667 -21.35 39.243336 -21.176666 39.83 -20.83C 40.410004 -20.476665 40.81667 -19.966667 41.05 -19.3C 40.75 -18.3 40.260002 -17.1 39.58 -15.7C 38.893333 -14.300001 38.2 -12.826668 37.5 -11.28C 36.800003 -9.726666 36.176666 -8.2 35.63 -6.7C 35.076668 -5.2 34.800003 -3.8500001 34.8 -2.65C 34.800003 -1.95 34.9 -1.4933333 35.1 -1.28C 35.300003 -1.06 35.583336 -0.95 35.95 -0.95C 36.35 -0.95 36.72667 -1.0266666 37.08 -1.18C 37.426666 -1.3266666 37.683334 -1.4 37.85 -1.4C 38.050003 -1.2666668 38.166668 -1.1000001 38.2 -0.9C 38.233334 -0.70000005 38.25 -0.5166667 38.25 -0.35C 37.583336 0.18333334 36.9 0.62666667 36.2 0.98C 35.5 1.3266667 34.716667 1.5 33.85 1.5C 33.050003 1.5 32.393333 1.3666667 31.88 1.1C 31.36 0.8333334 30.933334 0.46666667 30.6 0C 30.266668 -0.46666667 30.033335 -1 29.9 -1.6C 29.766668 -2.2 29.7 -2.8500001 29.7 -3.55C 29.7 -4.6833334 29.850002 -5.81 30.15 -6.93C 30.45 -8.043333 30.810001 -9.110001 31.23 -10.13C 31.643333 -11.143333 32.083336 -12.093333 32.55 -12.98C 33.01667 -13.860001 33.416668 -14.650001 33.75 -15.35zM41.9 -1C 42.06667 -1.9666668 42.35667 -3.2433333 42.77 -4.83C 43.190002 -6.4100003 43.683334 -8.093334 44.25 -9.88C 44.816666 -11.66 45.416664 -13.450001 46.05 -15.25C 46.683334 -17.050001 47.300003 -18.666668 47.9 -20.1C 48.333336 -21.133333 48.716667 -21.943333 49.05 -22.53C 49.38333 -23.11 49.75 -23.6 50.15 -24C 50.61667 -23.933334 51.100002 -23.816666 51.6 -23.65C 52.100002 -23.483334 52.583336 -23.283333 53.05 -23.05C 53.51667 -22.816668 53.933334 -22.576668 54.3 -22.33C 54.666664 -22.076668 54.95 -21.833334 55.15 -21.6C 54.250004 -20.533335 53.45667 -19.316668 52.77 -17.95C 52.09 -16.583334 51.4 -14.833334 50.7 -12.7C 52.500004 -14.300001 54.090004 -15.833334 55.47 -17.3C 56.85667 -18.766666 58.15 -20.400002 59.35 -22.2C 59.550003 -22.366669 59.900005 -22.45 60.4 -22.45C 60.86667 -22.45 61.316666 -22.376667 61.75 -22.23C 62.183334 -22.076668 62.483337 -21.866667 62.65 -21.6C 62.050003 -20.000002 61.75 -18.416668 61.75 -16.85C 61.75 -15.383333 61.966667 -14.283333 62.4 -13.55C 62.36667 -13.35 62.14 -12.966667 61.72 -12.4C 61.306667 -11.833334 60.85 -11.3 60.35 -10.8C 59.450005 -11.266667 58.65 -11.91 57.95 -12.73C 57.25 -13.543333 56.733337 -14.433333 56.4 -15.4C 54.833336 -14.3 53.5 -13.226667 52.4 -12.18C 51.300003 -11.126667 50.35667 -9.960001 49.57 -8.68C 48.790005 -7.3933334 48.123337 -5.916667 47.57 -4.25C 47.023335 -2.5833335 46.5 -0.6 46 1.7C 45.7 1.6666667 45.34 1.5600001 44.92 1.38C 44.506668 1.1933334 44.09 0.9666667 43.67 0.7C 43.256668 0.43333334 42.883335 0.15 42.55 -0.15C 42.216667 -0.45000005 42 -0.73333335 41.9 -1zM79.7 -19.9C 79.66667 -19.266666 79.55667 -18.61 79.37 -17.93C 79.19 -17.243334 78.96667 -16.623333 78.7 -16.07C 78.433334 -15.523334 78.15001 -15.066668 77.85 -14.7C 77.55 -14.333334 77.26667 -14.15 77 -14.15C 76.63333 -14.183334 76.41667 -14.433334 76.35 -14.9C 76.350006 -15 76.39 -15.160001 76.47 -15.38C 76.55667 -15.593334 76.65 -15.833334 76.75 -16.1C 76.850006 -16.366667 76.94 -16.633333 77.02 -16.9C 77.10667 -17.166666 77.15 -17.4 77.15 -17.6C 77.15 -18.066666 77.04 -18.46 76.82 -18.78C 76.60667 -19.093334 76.316666 -19.25 75.95 -19.25C 74.61667 -19.25 73.6 -18.416668 72.9 -16.75C 72.200005 -15.083334 71.850006 -12.633333 71.85 -9.4C 71.850006 -9.066667 71.86667 -8.866667 71.9 -8.8C 72.6 -8.833334 73.22333 -8.860001 73.77 -8.88C 74.32333 -8.893333 74.86667 -8.9 75.4 -8.9C 75.433334 -8.833334 75.45 -8.700001 75.45 -8.5C 75.45 -8.200001 75.38333 -7.9833336 75.25 -7.85C 74.48334 -7.6833334 73.87334 -7.543333 73.42 -7.43C 72.973335 -7.3100004 72.63333 -7.2000003 72.4 -7.1C 72.16667 -7 72.02334 -6.8933334 71.97 -6.78C 71.92334 -6.6600003 71.9 -6.5 71.9 -6.3C 71.9 -6.033334 71.90667 -5.766667 71.92 -5.5C 71.94 -5.2333336 71.95 -4.9 71.95 -4.5C 71.95 -1.7 71.19 0.54999995 69.67 2.25C 68.15667 3.9500003 66.05 4.9333334 63.35 5.2C 62.88334 5.166667 62.400005 5.033334 61.9 4.8C 61.400005 4.5666666 60.92334 4.266667 60.47 3.9C 60.02334 3.5333333 59.633335 3.1266668 59.3 2.68C 58.966667 2.2266667 58.733334 1.7666667 58.6 1.3C 58.6 0.0333333 58.86667 -1.1766667 59.4 -2.33C 59.933334 -3.476667 60.65667 -4.493334 61.57 -5.38C 62.49 -6.26 63.573334 -6.976667 64.82 -7.53C 66.07333 -8.076668 67.433334 -8.400001 68.9 -8.5C 68.9 -9.333334 68.816666 -10.15 68.65 -10.95C 68.48334 -11.75 68.30667 -12.526667 68.12 -13.28C 67.94 -14.026667 67.76666 -14.76 67.6 -15.48C 67.433334 -16.193333 67.350006 -16.9 67.35 -17.6C 67.350006 -18.5 67.53334 -19.393333 67.9 -20.28C 68.26666 -21.16 68.75 -21.976667 69.35 -22.73C 69.950005 -23.476667 70.65 -24.116669 71.45 -24.65C 72.25 -25.183334 73.083336 -25.550001 73.95 -25.75C 74.316666 -25.650002 74.80667 -25.36 75.42 -24.88C 76.04 -24.393333 76.65 -23.85 77.25 -23.25C 77.850006 -22.650002 78.38333 -22.043335 78.85 -21.43C 79.316666 -20.810001 79.600006 -20.3 79.7 -19.9zM63.2 2.9C 64 2.5666668 64.75667 2.0833335 65.47 1.45C 66.19 0.8166667 66.816666 0.10000001 67.35 -0.7C 67.88333 -1.5 68.30667 -2.35 68.62 -3.25C 68.94 -4.15 69.1 -5.0333333 69.1 -5.9C 68.433334 -5.8 67.700005 -5.493334 66.9 -4.98C 66.1 -4.46 65.35 -3.8433332 64.65 -3.13C 63.950005 -2.41 63.36667 -1.6666667 62.9 -0.9C 62.433334 -0.13333334 62.2 0.53333336 62.2 1.1C 62.2 1.8333334 62.533333 2.4333334 63.2 2.9zM98.54 -7.75C 97.77333 -5.3166666 97.00667 -3.1 96.24 -1.1C 95.473335 0.9 94.65667 2.74 93.79 4.42C 92.92333 6.1066666 91.99 7.66 90.99 9.08C 89.99 10.493334 88.89 11.833334 87.69 13.1C 86.15667 14.700001 84.57333 15.926668 82.94 16.78C 81.30667 17.626667 79.67333 18.05 78.04 18.05C 77.20667 18.05 76.38334 17.96 75.57 17.78C 74.75 17.593334 73.98333 17.343334 73.27 17.03C 72.55 16.71 71.91667 16.343334 71.37 15.93C 70.816666 15.510001 70.42334 15.066668 70.19 14.6C 70.19 14.200001 70.42334 13.85 70.89 13.55C 71.29 13.916668 71.62334 14.200001 71.89 14.4C 72.15667 14.6 72.41667 14.766666 72.67 14.9C 72.91667 15.033335 73.183334 15.116668 73.47 15.15C 73.75 15.183333 74.07333 15.2 74.44 15.2C 76.340004 15.2 78.2 14.643333 80.02 13.53C 81.83333 12.410001 83.55 10.826668 85.17 8.78C 86.78333 6.7266665 88.25667 4.2433333 89.59 1.33C 90.92333 -1.5899999 92.05666 -4.85 92.99 -8.45C 92.55666 -7.7833333 92.02333 -6.9666667 91.39 -6C 90.75667 -5.033334 90.05667 -4.076667 89.29 -3.13C 88.52334 -2.1766667 87.73334 -1.3166668 86.92 -0.55C 86.100006 0.2166667 85.30667 0.73333335 84.54 1C 84.00667 0.9666667 83.450005 0.86 82.87 0.68C 82.28333 0.49333334 81.73334 0.23333335 81.22 -0.1C 80.700005 -0.43333337 80.240005 -0.8333334 79.84 -1.3C 79.44 -1.7666667 79.17334 -2.3000002 79.04 -2.9C 79.04001 -3.8666668 79.07333 -4.6433334 79.14 -5.23C 79.206665 -5.81 79.32333 -6.45 79.49 -7.15C 79.79 -8.416667 80.23334 -9.85 80.82 -11.45C 81.4 -13.05 82.083336 -14.626667 82.87 -16.18C 83.65 -17.726667 84.51667 -19.176668 85.47 -20.53C 86.41667 -21.876667 87.40667 -22.933334 88.44 -23.7C 88.706665 -23.7 89.04 -23.676668 89.44 -23.63C 89.840004 -23.576666 90.25667 -23.483334 90.69 -23.35C 91.12334 -23.216667 91.54 -23.06 91.94 -22.88C 92.340004 -22.693335 92.69 -22.45 92.99 -22.15C 92.62334 -21.816666 91.82333 -20.7 90.59 -18.8C 89.35667 -16.9 87.99 -14.166667 86.49 -10.6C 86.32333 -10.233334 86.12334 -9.700001 85.89 -9C 85.65667 -8.3 85.433334 -7.566667 85.22 -6.8C 85 -6.033334 84.80667 -5.283334 84.64 -4.55C 84.473335 -3.816667 84.39 -3.2333336 84.39 -2.8C 84.39 -2.5333335 84.433334 -2.3333335 84.52 -2.2C 84.6 -2.0666666 84.67333 -1.9666667 84.74 -1.9C 85.34 -2 86.14 -2.4933333 87.14 -3.38C 88.14 -4.26 89.27333 -5.633333 90.54 -7.5C 91.34 -8.700001 92.07333 -9.893333 92.74 -11.08C 93.40666 -12.260001 94.066666 -13.450001 94.72 -14.65C 95.36667 -15.85 96.04 -17.083334 96.74 -18.35C 97.44 -19.616667 98.19 -20.916668 98.99 -22.25C 99.42333 -22.25 99.89 -22.2 100.39 -22.1C 100.89 -22 101.37334 -21.876667 101.84 -21.73C 102.30667 -21.576668 102.71667 -21.41 103.07 -21.23C 103.416664 -21.043335 103.67333 -20.85 103.84 -20.65C 102.80667 -18.45 101.840004 -16.300001 100.94 -14.2C 100.04 -12.1 99.240005 -9.950001 98.54 -7.75zM121.44 -20.2C 121.77334 -20.2 122.16667 -20.143333 122.62 -20.03C 123.06667 -19.91 123.473335 -19.76 123.84 -19.58C 124.206665 -19.393333 124.51666 -19.2 124.77 -19C 125.01666 -18.800001 125.14 -18.616669 125.14 -18.45C 124.473335 -17.050001 123.856674 -15.643333 123.29 -14.23C 122.72334 -12.810001 122.240005 -11.450001 121.84 -10.15C 121.44 -8.85 121.13333 -7.633333 120.92 -6.5C 120.7 -5.366667 120.59 -4.3833337 120.59 -3.55C 120.59 -2.6166668 120.69 -1.8433335 120.89 -1.23C 121.090004 -0.61 121.42334 -0.16666669 121.89 0.1C 121.490005 0.36666667 120.973335 0.5833334 120.34 0.75C 119.70667 0.9166667 119.14001 1 118.64 1C 116.840004 1 115.94 -0.23333335 115.94 -2.7C 115.94 -4.6000004 116.57333 -7.2000003 117.84 -10.5C 117.17333 -8.966667 116.40667 -7.5266666 115.54 -6.18C 114.67334 -4.826667 113.79001 -3.6333337 112.89 -2.6C 111.990005 -1.5666666 111.083336 -0.7266666 110.17 -0.08C 109.25001 0.5733334 108.40668 0.9666667 107.64 1.1C 106.40668 1.0333333 105.40668 0.44 104.64 -0.68C 103.87334 -1.7933333 103.49 -3.2166667 103.49 -4.95C 103.49 -6.816667 103.89 -8.783334 104.69 -10.85C 105.490005 -12.916667 106.51667 -14.833334 107.77 -16.6C 109.01667 -18.366669 110.37334 -19.843334 111.84 -21.03C 113.30667 -22.21 114.72334 -22.833332 116.09 -22.9C 116.42334 -22.8 116.8 -22.6 117.22 -22.3C 117.63333 -22 118.03333 -21.650002 118.42 -21.25C 118.8 -20.85 119.12334 -20.443333 119.39 -20.03C 119.65667 -19.61 119.80667 -19.25 119.84 -18.95C 118.50667 -18.75 117.13333 -18.1 115.72 -17C 114.3 -15.900001 113.01667 -14.576667 111.87 -13.03C 110.71667 -11.476666 109.77333 -9.816667 109.04 -8.05C 108.30667 -6.283334 107.94001 -4.633333 107.94 -3.1C 107.94001 -2.4666667 108.17334 -2.0666666 108.64 -1.9C 109.60667 -2.1 110.723335 -2.9266667 111.99 -4.38C 113.25667 -5.826667 114.79 -8.066668 116.59 -11.1C 116.92333 -11.700001 117.3 -12.366667 117.72 -13.1C 118.13333 -13.833334 118.55667 -14.6 118.99 -15.4C 119.42334 -16.2 119.850006 -17.006668 120.27 -17.82C 120.683334 -18.64 121.07334 -19.433334 121.44 -20.2zM131.89 0.35C 133.42334 -0.6833334 134.92334 -2.0100002 136.39 -3.63C 137.85666 -5.243334 139.19 -6.993334 140.39 -8.88C 141.59 -10.76 142.60667 -12.716667 143.44 -14.75C 144.27335 -16.783333 144.84001 -18.733334 145.14 -20.6C 145.14 -21 144.92334 -21.266666 144.49 -21.4C 144.02335 -21.4 143.38 -20.993334 142.56 -20.18C 141.74667 -19.36 140.84668 -18.316668 139.86 -17.05C 138.88 -15.783334 137.88 -14.366667 136.86 -12.8C 135.84668 -11.233334 134.92334 -9.676666 134.09 -8.13C 133.25667 -6.576667 132.54666 -5.126667 131.96 -3.78C 131.38 -2.4266667 131.05667 -1.3333334 130.99 -0.5C 130.65668 -0.5 130.37334 -0.8333334 130.14 -1.5C 130.07333 -1.6666667 129.95667 -1.8400002 129.79 -2.02C 129.62334 -2.2066667 129.35667 -2.4333334 128.99 -2.7C 128.82335 -2.8333335 128.65668 -2.9933333 128.49 -3.18C 128.32333 -3.3600001 128.20667 -3.516667 128.14 -3.65C 128.00667 -3.916667 127.94 -4.3500004 127.94 -4.95C 127.94 -6.916667 128.19 -9.133333 128.69 -11.6C 129.19 -14.066668 129.84668 -16.583334 130.66 -19.15C 131.48001 -21.716667 132.44 -24.243334 133.54 -26.73C 134.64 -29.210001 135.78 -31.483334 136.96 -33.55C 138.14667 -35.61667 139.34 -37.36667 140.54 -38.8C 141.73999 -40.233334 142.87334 -41.183334 143.94 -41.65C 144.27335 -41.550003 144.67334 -41.383335 145.14 -41.15C 145.60667 -40.916668 146.07333 -40.65 146.54 -40.35C 147.00667 -40.050003 147.44667 -39.750004 147.86 -39.45C 148.28 -39.15 148.59 -38.883335 148.79 -38.65C 145.12332 -35.683334 141.94666 -31.876667 139.26 -27.23C 136.58 -22.576668 134.39001 -17.083334 132.69 -10.75C 133.62334 -12.483334 134.67334 -14.160001 135.84 -15.78C 137.00667 -17.393333 138.16333 -18.816668 139.31 -20.05C 140.46333 -21.283333 141.56332 -22.266666 142.61 -23C 143.66333 -23.733334 144.54001 -24.100002 145.24 -24.1C 145.77335 -23.966667 146.29001 -23.733334 146.79 -23.4C 147.29001 -23.066666 147.74 -22.66 148.14 -22.18C 148.54001 -21.693335 148.87334 -21.176668 149.14 -20.63C 149.40666 -20.076666 149.57333 -19.5 149.64 -18.9C 149.60667 -17.5 149.36334 -16.01 148.91 -14.43C 148.46335 -12.843334 147.86334 -11.283334 147.11 -9.75C 146.36334 -8.216667 145.51334 -6.75 144.56 -5.35C 143.61334 -3.95 142.61334 -2.7266667 141.56 -1.68C 140.51334 -0.62666667 139.46335 0.2166667 138.41 0.85C 137.36334 1.4833333 136.37334 1.8000001 135.44 1.8C 135.04001 1.8000001 134.63 1.76 134.21 1.68C 133.79666 1.5933332 133.41333 1.4766667 133.06 1.33C 132.71333 1.1766667 132.43001 1.0166667 132.21 0.85C 131.99667 0.6833334 131.89 0.5166667 131.89 0.35zM168.14 -20.2C 168.47333 -20.2 168.86334 -20.143333 169.31 -20.03C 169.76334 -19.91 170.17334 -19.76 170.54 -19.58C 170.90666 -19.393333 171.21333 -19.2 171.46 -19C 171.71333 -18.800001 171.84 -18.616669 171.84 -18.45C 171.17334 -17.050001 170.55667 -15.643333 169.99 -14.23C 169.42334 -12.810001 168.94 -11.450001 168.54 -10.15C 168.14001 -8.85 167.83002 -7.633333 167.61 -6.5C 167.39667 -5.366667 167.29 -4.3833337 167.29 -3.55C 167.29 -2.6166668 167.39 -1.8433335 167.59 -1.23C 167.79001 -0.61 168.12334 -0.16666669 168.59 0.1C 168.19 0.36666667 167.67334 0.5833334 167.04 0.75C 166.40668 0.9166667 165.84 1 165.34 1C 163.54001 1 162.64 -0.23333335 162.64 -2.7C 162.64 -4.6000004 163.27333 -7.2000003 164.54 -10.5C 163.87332 -8.966667 163.10666 -7.5266666 162.24 -6.18C 161.37334 -4.826667 160.49 -3.6333337 159.59 -2.6C 158.69 -1.5666666 157.78 -0.7266666 156.86 -0.08C 155.94667 0.5733334 155.10667 0.9666667 154.34 1.1C 153.10667 1.0333333 152.10667 0.44 151.34 -0.68C 150.57333 -1.7933333 150.19 -3.2166667 150.19 -4.95C 150.19 -6.816667 150.59 -8.783334 151.39 -10.85C 152.19 -12.916667 153.21335 -14.833334 154.46 -16.6C 155.71335 -18.366669 157.07333 -19.843334 158.54 -21.03C 160.00667 -22.21 161.42334 -22.833332 162.79 -22.9C 163.12334 -22.8 163.49667 -22.6 163.91 -22.3C 164.33 -22 164.73 -21.650002 165.11 -21.25C 165.49667 -20.85 165.82333 -20.443333 166.09 -20.03C 166.35667 -19.61 166.50667 -19.25 166.54 -18.95C 165.20667 -18.75 163.83 -18.1 162.41 -17C 160.99667 -15.900001 159.71333 -14.576667 158.56 -13.03C 157.41333 -11.476666 156.47333 -9.816667 155.74 -8.05C 155.00668 -6.283334 154.64001 -4.633333 154.64 -3.1C 154.64001 -2.4666667 154.87334 -2.0666666 155.34 -1.9C 156.30667 -2.1 157.42334 -2.9266667 158.69 -4.38C 159.95667 -5.826667 161.48999 -8.066668 163.29 -11.1C 163.62332 -11.700001 163.99667 -12.366667 164.41 -13.1C 164.83 -13.833334 165.25667 -14.6 165.69 -15.4C 166.12334 -16.2 166.54666 -17.006668 166.96 -17.82C 167.38 -18.64 167.77335 -19.433334 168.14 -20.2zM182.48 -24.25C 183.34668 -23.983334 184.16333 -23.393333 184.93 -22.48C 185.69667 -21.560001 186.26334 -20.550001 186.63 -19.45C 186.26334 -18.550001 185.69667 -17.466667 184.93 -16.2C 184.16333 -14.933334 183.39667 -13.643333 182.63 -12.33C 181.86334 -11.01 181.17334 -9.76 180.56 -8.58C 179.94 -7.393334 179.58002 -6.416667 179.48 -5.65C 180.01334 -6.216667 180.60666 -6.876667 181.26 -7.63C 181.90666 -8.376667 182.54001 -9.126667 183.16 -9.88C 183.77335 -10.626667 184.34668 -11.31 184.88 -11.93C 185.41333 -12.543335 185.83 -13.000001 186.13 -13.3C 186.76334 -13.966667 187.51334 -14.743334 188.38 -15.63C 189.24667 -16.510002 190.15666 -17.343334 191.11 -18.13C 192.05667 -18.91 193.01334 -19.576668 193.98 -20.13C 194.94667 -20.676666 195.83 -20.95 196.63 -20.95C 197.49667 -20.95 198.22334 -20.66 198.81 -20.08C 199.39 -19.493336 199.84666 -18.883335 200.18 -18.25C 200.18001 -18.183334 200.05667 -18.093334 199.81 -17.98C 199.55667 -17.86 199.19667 -17.533333 198.73 -17C 198.26334 -16.400002 197.74 -15.576667 197.16 -14.53C 196.57333 -13.476666 196.00667 -12.343333 195.46 -11.13C 194.90668 -9.91 194.44669 -8.666667 194.08 -7.4C 193.71335 -6.133333 193.53 -4.9833336 193.53 -3.95C 193.53 -3.1166668 193.64001 -2.5833335 193.86 -2.35C 194.07333 -2.1166668 194.38 -2 194.78 -2C 195.14667 -2 195.53 -2.0833335 195.93 -2.25C 196.33 -2.4166667 196.64667 -2.5 196.88 -2.5C 197.01334 -2.4333334 197.12335 -2.2933335 197.21 -2.08C 197.29001 -1.8600001 197.33002 -1.6666667 197.33 -1.5C 197.06334 -1.2666667 196.74667 -1.0333333 196.38 -0.8C 196.01335 -0.5666667 195.63 -0.35000002 195.23 -0.15C 194.83002 0.050000004 194.44 0.21666667 194.06 0.35C 193.67334 0.48333335 193.33 0.55 193.03 0.55C 192.06334 0.55 191.27335 0.41 190.66 0.13C 190.04001 -0.15666668 189.55667 -0.53333336 189.21 -1C 188.85667 -1.4666668 188.61334 -2.0266669 188.48 -2.68C 188.34668 -3.3266668 188.28 -4.016667 188.28 -4.75C 188.28 -5.15 188.31334 -5.6 188.38 -6.1C 188.44667 -6.6 188.58 -7.1933336 188.78 -7.88C 188.98001 -8.56 189.26334 -9.376667 189.63 -10.33C 189.99667 -11.276667 190.46333 -12.416667 191.03 -13.75C 190.96333 -13.75 190.51334 -13.516667 189.68 -13.05C 188.84666 -12.583334 187.94666 -11.866667 186.98 -10.9C 185.41333 -9.4 184.00667 -7.9166665 182.76 -6.45C 181.50667 -4.9833336 180.23001 -3.3500001 178.93 -1.55C 178.19667 -0.51666665 177.55667 0.35666668 177.01 1.07C 176.45667 1.7900001 175.98 2.266667 175.58 2.5C 174.88 2.1 174.36334 1.5433333 174.03 0.83C 173.69667 0.11 173.44667 -0.6333333 173.28 -1.4C 173.28 -2.0333333 173.37334 -2.8333333 173.56 -3.8C 173.74 -4.7666664 173.99 -5.8433332 174.31 -7.03C 174.62334 -8.21 175.01334 -9.450001 175.48 -10.75C 175.94666 -12.050001 176.46333 -13.35 177.03 -14.65C 178.29666 -17.583332 179.45667 -19.883333 180.51 -21.55C 181.55667 -23.216667 182.21335 -24.116667 182.48 -24.25z" stroke="none" fill="#6897BB" fill-rule="nonzero" />
														</g>
													</g>
												</g>
											</g>
										</g>
									</g>
								</g>
							</g>
							<g>
							</g>
						</g>
					</g>
				</g>
			</g>
		</g>
	</g>
</g>
</svg>